<svg width="20" height="23" viewBox="0 0 20 23" fill="none" xmlns="http://www.w3.org/2000/svg">
<path fill-rule="evenodd" clip-rule="evenodd" d="M5.33003 0H14.669C18.07 0 19.99 2.1243 20 5.86962V16.1552C20 19.8994 18.07 22.0248 14.669 22.0248H5.33003C1.92903 22.0248 3.05176e-05 19.8994 3.05176e-05 16.1552V5.86962C3.05176e-05 2.1243 1.92903 0 5.33003 0ZM10.049 17.4657C10.48 17.4657 10.839 17.1133 10.879 16.6398V5.41811C10.919 5.07672 10.77 4.73424 10.5 4.54813C10.219 4.36092 9.87903 4.36092 9.61003 4.54813C9.33903 4.73424 9.19003 5.07672 9.21903 5.41811V16.6398C9.27003 17.1133 9.62903 17.4657 10.049 17.4657ZM14.65 17.4657C15.07 17.4657 15.429 17.1133 15.48 16.6398V13.0277C15.509 12.6742 15.36 12.3449 15.089 12.1577C14.82 11.9705 14.48 11.9705 14.2 12.1577C13.929 12.3449 13.78 12.6742 13.82 13.0277V16.6398C13.86 17.1133 14.219 17.4657 14.65 17.4657ZM6.21902 16.6398C6.17902 17.1133 5.82002 17.4657 5.38902 17.4657C4.95902 17.4657 4.59902 17.1133 4.56002 16.6398V9.03018C4.53002 8.6877 4.67902 8.34741 4.95002 8.1602C5.21902 7.97299 5.56002 7.97299 5.83002 8.1602C6.09902 8.34741 6.25002 8.6877 6.21902 9.03018V16.6398Z" fill="#605BFF"/>
</svg>
