<svg width="24" height="23" viewBox="0 0 24 23" fill="none" xmlns="http://www.w3.org/2000/svg">
<g opacity="0.4">
<path fill-rule="evenodd" clip-rule="evenodd" d="M21.7872 7.47423C21.6518 7.61908 21.4681 7.70185 21.2747 7.70185C20.559 7.70185 19.9787 8.32263 19.9787 9.07792C19.9787 9.83838 20.5522 10.4561 21.2611 10.4643C21.6605 10.4685 22 10.7664 22 11.1938V13.8476C22 16.0814 20.3075 17.893 18.2186 17.893H15.0658C14.7398 17.893 14.4758 17.6106 14.4758 17.2619V15.0271C14.4758 14.5925 14.1567 14.2511 13.7505 14.2511C13.354 14.2511 13.0251 14.5925 13.0251 15.0271V17.2619C13.0251 17.6106 12.7611 17.893 12.4362 17.893H5.78143C3.70213 17.893 2 16.0824 2 13.8476V11.1938C2 10.7664 2.33946 10.4685 2.73888 10.4643C3.44874 10.4561 4.02128 9.83838 4.02128 9.07792C4.02128 8.34333 3.46035 7.78462 2.72534 7.78462C2.53191 7.78462 2.34816 7.70185 2.21277 7.557C2.07737 7.41215 2 7.21557 2 7.00865V4.32894C2 2.09826 3.706 0.273159 5.7911 0.273159H12.4362C12.7611 0.273159 13.0251 0.555615 13.0251 0.904288V3.55296C13.0251 3.97716 13.354 4.32894 13.7505 4.32894C14.1567 4.32894 14.4758 3.97716 14.4758 3.55296V0.904288C14.4758 0.555615 14.7398 0.273159 15.0658 0.273159H18.2186C20.3075 0.273159 22 2.08377 22 4.31859V6.92587C22 7.1328 21.9226 7.32938 21.7872 7.47423ZM13.7505 12.2439C14.1567 12.2439 14.4758 11.8921 14.4758 11.4679V7.32938C14.4758 6.90518 14.1567 6.55341 13.7505 6.55341C13.354 6.55341 13.0251 6.90518 13.0251 7.32938V11.4679C13.0251 11.8921 13.354 12.2439 13.7505 12.2439Z" fill="#030229"/>
</g>
</svg>
