<svg width="27" height="27" viewBox="0 0 27 27" fill="none" xmlns="http://www.w3.org/2000/svg">
<path d="M13.5 0.318604C6.04487 0.318604 0 6.13959 0 13.3186C0 20.4976 6.04487 26.3186 13.5 26.3186C20.9551 26.3186 27 20.4976 27 13.3186C27 6.13959 20.9551 0.318604 13.5 0.318604ZM19.9878 10.1179C19.9969 10.2543 19.9969 10.3965 19.9969 10.5358C19.9969 14.7956 16.6279 19.7025 10.4715 19.7025C8.5731 19.7025 6.81328 19.1715 5.33069 18.2574C5.6019 18.2865 5.86105 18.2981 6.13828 18.2981C7.70525 18.2981 9.14565 17.7874 10.2938 16.9226C8.82321 16.8936 7.58772 15.965 7.16585 14.6882C7.68114 14.7608 8.1452 14.7608 8.67556 14.6302C7.91837 14.4821 7.23779 14.0861 6.74945 13.5095C6.2611 12.9329 5.9951 12.2113 5.99665 11.4673V11.4266C6.43962 11.6675 6.96094 11.8155 7.50636 11.8358C7.04785 11.5415 6.67183 11.1429 6.41163 10.6752C6.15143 10.2075 6.0151 9.68514 6.01473 9.15454C6.01473 8.55387 6.17746 8.00543 6.46976 7.52954C7.3102 8.52583 8.35894 9.34067 9.54783 9.92109C10.7367 10.5015 12.0391 10.8345 13.3704 10.8985C12.8973 8.70767 14.5969 6.93467 16.64 6.93467C17.6042 6.93467 18.4721 7.32351 19.0838 7.9503C19.8402 7.81392 20.5634 7.54115 21.2083 7.17552C20.9581 7.92128 20.4338 8.55097 19.7377 8.94851C20.4127 8.87887 21.0636 8.69896 21.6663 8.44651C21.2113 9.0907 20.6417 9.66235 19.9878 10.1179Z" fill="#858585"/>
</svg>
