<svg width="28" height="29" viewBox="0 0 28 29" fill="none" xmlns="http://www.w3.org/2000/svg">
<path fill-rule="evenodd" clip-rule="evenodd" d="M13.9749 0.318689C10.6567 0.319148 7.44691 1.53191 4.91967 3.74004C2.39243 5.94816 0.712627 9.0076 0.180751 12.3711C-0.351124 15.7345 0.299623 19.1826 2.01659 22.0985C3.73355 25.0144 6.40472 27.2079 9.55227 28.2866C10.2511 28.4199 10.5506 27.979 10.5506 27.5997V25.1597C6.66706 26.0209 5.84843 23.2323 5.84843 23.2323C5.57533 22.3535 5.00055 21.6066 4.23111 21.1306C2.96322 20.2489 4.33095 20.2592 4.33095 20.2592C4.77382 20.3234 5.19653 20.4907 5.5668 20.7484C5.93708 21.006 6.24512 21.3471 6.4674 21.7457C6.8541 22.458 7.50041 22.9834 8.26424 23.2064C9.02807 23.4294 9.84687 23.3318 10.5406 22.935C10.597 22.2076 10.9093 21.5261 11.4192 21.0178C8.32431 20.6487 5.05974 19.4185 5.05974 13.9233C5.0371 12.4961 5.55214 11.1151 6.49735 10.0685C6.06952 8.83229 6.11954 7.47468 6.63711 6.2752C6.63711 6.2752 7.80517 5.88562 10.4807 7.74126C12.7684 7.10045 15.1814 7.10045 17.4691 7.74126C20.1347 5.88562 21.3027 6.2752 21.3027 6.2752C21.8203 7.47468 21.8703 8.83229 21.4425 10.0685C22.3877 11.1151 22.9027 12.4961 22.8801 13.9233C22.8801 19.439 19.6155 20.6487 16.5007 21.0076C16.8344 21.3549 17.0917 21.7716 17.2553 22.2296C17.4189 22.6877 17.485 23.1764 17.4491 23.6629V27.5997C17.4491 28.0713 17.6987 28.4301 18.4475 28.2866C21.5992 27.2066 24.2731 25.0089 25.9898 22.0876C27.7065 19.1663 28.3536 15.7126 27.8152 12.3457C27.2768 8.97881 25.588 5.91902 23.0517 3.715C20.5154 1.51098 17.2974 0.306902 13.9749 0.318689Z" fill="#858585"/>
</svg>
