<svg width="31" height="31" viewBox="0 0 31 31" fill="none" xmlns="http://www.w3.org/2000/svg">
<path d="M25.3813 4.0686H5.61875C4.65 4.0686 3.875 4.8186 3.875 5.66235V24.8811C3.875 25.7249 4.65 26.4749 5.61875 26.4749H25.3813C26.35 26.4749 27.125 25.7249 27.125 24.8811V5.66235C27.125 4.8186 26.35 4.0686 25.3813 4.0686ZM10.7531 23.1936H7.3625V12.5061H10.7531V23.1936ZM9.10625 11.0061C8.04062 11.0061 7.07188 10.1624 7.07188 9.03735C7.07188 7.91235 7.94375 7.0686 9.10625 7.0686C10.1719 7.0686 11.1406 7.91235 11.1406 9.03735C11.1406 10.1624 10.1719 11.0061 9.10625 11.0061ZM23.7344 23.0999H20.3438V17.8499C20.3438 16.6311 20.3438 14.9436 18.5031 14.9436C16.6625 14.9436 16.4688 16.3499 16.4688 17.6624V23.0061H13.0781V12.5061H16.275V13.9124H16.3719C16.8562 13.0686 18.0187 12.1311 19.6656 12.1311C23.1531 12.1311 23.8313 14.3811 23.8313 17.2874V23.0999H23.7344Z" fill="#858585"/>
</svg>
