<svg width="24" height="27" viewBox="0 0 24 27" fill="none" xmlns="http://www.w3.org/2000/svg">
<g opacity="0.4">
<path fill-rule="evenodd" clip-rule="evenodd" d="M18.7071 9.81964C18.7071 11.2027 19.039 12.0179 19.7695 12.9574C20.3231 13.6495 20.5 14.5379 20.5 15.5017C20.5 16.4644 20.2128 17.3784 19.6373 18.1204C18.884 19.0099 17.8215 19.5778 16.7372 19.6765C15.1659 19.824 13.5937 19.9482 12.0005 19.9482C10.4063 19.9482 8.83505 19.8739 7.26375 19.6765C6.17846 19.5778 5.11602 19.0099 4.36367 18.1204C3.78822 17.3784 3.5 16.4644 3.5 15.5017C3.5 14.5379 3.6779 13.6495 4.23049 12.9574C4.98384 12.0179 5.29392 11.2027 5.29392 9.81964V9.35048C5.29392 7.49823 5.71333 6.28706 6.577 5.1014C7.86106 3.37227 9.91935 2.33524 11.9558 2.33524H12.0452C14.1254 2.33524 16.2502 3.42218 17.5125 5.22563C18.3314 6.38688 18.7071 7.54703 18.7071 9.35048V9.81964ZM9.07367 22.2246C9.07367 21.67 9.53582 21.416 9.96318 21.3073C10.4631 21.1909 13.5093 21.1909 14.0092 21.3073C14.4365 21.416 14.8987 21.67 14.8987 22.2246C14.8738 22.7525 14.5926 23.2206 14.204 23.5178C13.7001 23.9504 13.1087 24.2243 12.4906 24.323C12.1487 24.3718 11.8128 24.3729 11.4828 24.323C10.8636 24.2243 10.2723 23.9504 9.76937 23.5167C9.37978 23.2206 9.09852 22.7525 9.07367 22.2246Z" fill="#030229"/>
</g>
</svg>
